<svg xmlns="http://www.w3.org/2000/svg" xmlns:xlink="http://www.w3.org/1999/xlink" width="500" zoomAndPan="magnify" viewBox="0 0 375 374.999991" height="500" preserveAspectRatio="xMidYMid meet" version="1.0"><defs><clipPath id="09b335cb4d"><path d="M 38.972656 69.078125 L 335.972656 69.078125 L 335.972656 305.910156 L 38.972656 305.910156 Z M 38.972656 69.078125 " clip-rule="nonzero"/></clipPath></defs><path fill="#222831" d="M 226.761719 100.132812 C 212.023438 94.546875 186.945312 124.644531 170.746094 167.363281 C 154.550781 210.082031 153.367188 249.242188 168.105469 254.832031 C 172.113281 256.351562 176.882812 255.226562 182.03125 251.933594 C 178.253906 237.074219 181.898438 210.382812 192.660156 182.003906 C 205.074219 149.257812 223.09375 124.476562 236.734375 119.632812 C 235.707031 109.335938 232.402344 102.273438 226.761719 100.132812 " fill-opacity="1" fill-rule="nonzero"/><g clip-path="url(#09b335cb4d)"><path fill="#222831" d="M 319.230469 159.890625 C 318.242188 169.230469 316.351562 180.296875 313.152344 192.308594 C 311.644531 197.972656 309.847656 203.851562 307.75 209.851562 C 308.875 207.121094 309.90625 204.542969 310.832031 202.160156 C 312.914062 196.800781 314.484375 192.398438 315.554688 189.347656 C 316.582031 186.367188 317.191406 184.597656 317.191406 184.597656 C 317.191406 184.597656 316.917969 186.367188 316.296875 189.550781 C 315.671875 192.730469 314.6875 197.324219 313.179688 202.929688 C 310.167969 214.121094 304.992188 229.414062 296.671875 245.1875 C 292.527344 253.066406 288 260.292969 283.476562 266.589844 C 278.957031 272.886719 274.4375 278.261719 270.398438 282.550781 C 266.363281 286.851562 262.804688 290.078125 260.28125 292.222656 C 259.019531 293.296875 258.015625 294.101562 257.328125 294.644531 C 256.644531 295.171875 256.273438 295.460938 256.273438 295.460938 C 256.273438 295.460938 256.59375 295.121094 257.183594 294.488281 C 257.777344 293.847656 258.648438 292.90625 259.742188 291.671875 C 261.929688 289.207031 265.003906 285.585938 268.511719 280.957031 C 271.398438 277.152344 274.582031 272.65625 277.875 267.601562 C 271.125 276.824219 264.140625 284.523438 257.613281 290.433594 C 250.609375 296.820312 244.132812 301.085938 239.445312 303.59375 C 239.320312 303.660156 239.203125 303.71875 239.078125 303.785156 L 239.078125 302.910156 C 243.484375 300.03125 249.46875 295.34375 255.898438 288.660156 C 262.355469 281.980469 269.277344 273.339844 275.972656 263.117188 C 282.675781 252.898438 289.171875 241.109375 295.023438 228.292969 C 300.875 215.472656 305.554688 202.855469 309.140625 191.164062 C 312.730469 179.472656 315.199219 168.695312 316.78125 159.546875 C 318.375 150.398438 319.089844 142.878906 319.410156 137.667969 C 319.578125 135.058594 319.644531 133.027344 319.683594 131.648438 C 319.714844 130.277344 319.730469 129.546875 319.730469 129.546875 C 319.730469 129.546875 319.789062 130.277344 319.898438 131.644531 C 319.992188 133.023438 320.117188 135.058594 320.183594 137.683594 C 320.324219 142.925781 320.226562 150.542969 319.230469 159.890625 Z M 230.324219 288.402344 C 230.933594 287.75 231.828125 286.78125 232.949219 285.523438 C 235.191406 283 238.347656 279.296875 241.949219 274.558594 C 245.554688 269.824219 249.605469 264.046875 253.757812 257.460938 C 257.921875 250.875 262.1875 243.476562 266.355469 235.558594 C 274.707031 219.726562 281.070312 204.800781 285.316406 193.804688 C 287.445312 188.308594 289.046875 183.800781 290.140625 180.671875 C 291.1875 177.609375 291.808594 175.796875 291.808594 175.796875 C 291.808594 175.796875 291.523438 177.613281 290.882812 180.871094 C 290.238281 184.132812 289.222656 188.835938 287.664062 194.574219 C 284.566406 206.039062 279.25 221.703125 270.726562 237.863281 C 266.476562 245.933594 261.847656 253.339844 257.21875 259.789062 C 252.59375 266.246094 247.964844 271.753906 243.835938 276.15625 C 239.707031 280.5625 236.070312 283.871094 233.488281 286.074219 C 232.199219 287.175781 231.171875 288 230.46875 288.558594 C 229.773438 289.101562 229.394531 289.398438 229.394531 289.398438 C 229.394531 289.398438 229.722656 289.046875 230.324219 288.402344 Z M 234.53125 273.523438 C 235.394531 272.449219 236.664062 270.851562 238.242188 268.757812 C 241.402344 264.570312 245.789062 258.367188 250.605469 250.324219 C 254.855469 243.238281 259.4375 234.722656 263.898438 225.046875 C 263.265625 226.203125 262.640625 227.328125 262.035156 228.390625 C 259.050781 233.617188 256.40625 237.695312 254.527344 240.46875 C 252.644531 243.246094 251.539062 244.726562 251.539062 244.726562 C 251.539062 244.726562 252.402344 243.003906 253.859375 240.082031 C 255.332031 237.085938 257.421875 232.726562 259.828125 227.277344 C 264.65625 216.390625 270.65625 201.042969 275.839844 183.703125 C 278.4375 175.042969 280.59375 166.703125 282.261719 159.066406 C 283.9375 151.429688 285.128906 144.488281 285.925781 138.644531 C 286.730469 132.796875 287.144531 128.035156 287.378906 124.75 C 287.601562 121.460938 287.671875 119.636719 287.671875 119.636719 C 287.671875 119.636719 287.910156 121.441406 288.148438 124.75 C 288.378906 128.050781 288.582031 132.871094 288.386719 138.851562 C 288.355469 139.808594 288.3125 140.8125 288.261719 141.832031 C 289.621094 130.527344 289.902344 120.234375 289.320312 111.585938 C 288.738281 102.339844 287.136719 95.007812 285.589844 90.125 C 284.824219 87.675781 284.082031 85.832031 283.554688 84.59375 C 283.027344 83.355469 282.71875 82.71875 282.71875 82.71875 C 282.71875 82.71875 283.09375 83.316406 283.746094 84.5 C 284.398438 85.683594 285.320312 87.460938 286.316406 89.859375 C 288.316406 94.640625 290.5625 101.957031 291.78125 111.34375 C 293.03125 120.710938 293.289062 132.082031 292.113281 144.605469 C 290.945312 157.128906 288.355469 170.792969 284.257812 184.734375 C 280.15625 198.679688 274.972656 211.566406 269.457031 222.863281 C 263.945312 234.171875 258.078125 243.875 252.679688 251.664062 C 247.285156 259.460938 242.367188 265.339844 238.839844 269.25 C 237.074219 271.207031 235.65625 272.675781 234.6875 273.664062 C 233.714844 274.640625 233.199219 275.160156 233.199219 275.160156 C 233.199219 275.160156 233.660156 274.589844 234.53125 273.523438 Z M 307.570312 168.210938 C 309.207031 160.769531 310.378906 154.003906 311.164062 148.308594 C 311.953125 142.613281 312.367188 137.976562 312.597656 134.773438 C 312.824219 131.566406 312.894531 129.792969 312.894531 129.792969 C 312.894531 129.792969 313.132812 131.550781 313.371094 134.773438 C 313.601562 137.992188 313.804688 142.6875 313.625 148.515625 C 313.449219 154.34375 312.875 161.308594 311.667969 168.980469 C 310.464844 176.648438 308.617188 185.027344 306.035156 193.640625 C 303.453125 202.25 300.390625 210.273438 297.242188 217.390625 C 294.089844 224.507812 290.847656 230.726562 287.933594 235.8125 C 285.015625 240.90625 282.429688 244.878906 280.59375 247.582031 C 278.753906 250.28125 277.671875 251.726562 277.671875 251.726562 C 277.671875 251.726562 278.511719 250.039062 279.925781 247.191406 C 281.359375 244.265625 283.386719 240.015625 285.726562 234.699219 C 290.417969 224.082031 296.25 209.117188 301.300781 192.21875 C 303.835938 183.777344 305.9375 175.652344 307.570312 168.210938 Z M 224.71875 188.691406 C 206.78125 236.003906 179.003906 269.34375 162.679688 263.152344 C 146.355469 256.964844 147.664062 213.589844 165.605469 166.277344 C 183.546875 118.960938 211.320312 85.625 227.644531 91.8125 C 243.96875 98.003906 242.660156 141.375 224.71875 188.691406 Z M 335.476562 131.234375 C 334.996094 126.183594 334.179688 121.148438 332.855469 116.242188 C 331.707031 111.988281 330.183594 107.816406 328.089844 103.933594 C 326.273438 100.558594 324.011719 97.394531 321.210938 94.761719 C 318.714844 92.414062 315.796875 90.527344 312.589844 89.308594 C 311.480469 88.890625 309.105469 88.269531 307.339844 87.828125 C 305.554688 87.382812 303.773438 86.921875 301.984375 86.488281 C 298.445312 85.632812 294.914062 84.730469 291.382812 83.828125 C 284.292969 82.015625 277.191406 80.183594 270.074219 78.484375 C 262.953125 76.78125 255.875 74.890625 248.765625 73.140625 C 245.175781 72.261719 241.605469 71.304688 238.015625 70.4375 C 236.152344 69.984375 234.285156 69.367188 232.363281 69.160156 C 231.265625 69.042969 230.160156 69.054688 229.0625 69.160156 L 38.972656 69.160156 L 216.003906 74.390625 C 215.832031 74.5 215.660156 74.613281 215.492188 74.726562 C 212.136719 76.996094 209.042969 79.640625 206.132812 82.453125 C 205.152344 83.402344 204.199219 84.375 203.257812 85.363281 L 98.960938 85.363281 L 199.109375 89.949219 C 198.222656 90.984375 197.34375 92.03125 196.484375 93.09375 C 194.257812 95.84375 192.136719 98.675781 190.085938 101.5625 L 135.667969 101.5625 L 186.582031 106.65625 C 183.265625 111.652344 180.164062 116.78125 177.234375 122.011719 C 174.007812 127.777344 170.996094 133.664062 168.171875 139.640625 C 165.164062 146 162.375 152.464844 159.789062 159.007812 C 156.984375 166.101562 154.417969 173.289062 152.109375 180.558594 C 149.890625 187.527344 147.914062 194.574219 146.207031 201.683594 C 144.640625 208.234375 143.304688 214.839844 142.269531 221.496094 C 141.339844 227.464844 140.648438 233.476562 140.304688 239.511719 C 140 244.753906 139.953125 250.015625 140.324219 255.253906 C 140.632812 259.628906 141.222656 264.003906 142.34375 268.246094 C 143.246094 271.648438 144.492188 275.015625 146.382812 278 C 147.925781 280.433594 149.933594 282.613281 152.453125 284.042969 C 153.765625 284.789062 155.175781 285.222656 156.609375 285.597656 L 117.351562 289.398438 L 171.667969 289.398438 C 174.109375 289.988281 176.550781 290.589844 178.988281 291.207031 C 179.027344 291.183594 179.066406 291.164062 179.109375 291.140625 C 180.300781 290.503906 182.035156 289.511719 184.1875 288.089844 C 188.488281 285.253906 194.394531 280.59375 200.796875 273.847656 C 207.210938 267.132812 214.117188 258.382812 220.796875 247.996094 C 227.488281 237.617188 233.960938 225.613281 239.75 212.546875 C 245.546875 199.484375 250.144531 186.617188 253.585938 174.714844 C 257.039062 162.804688 259.320312 151.855469 260.695312 142.578125 C 262.082031 133.304688 262.558594 125.714844 262.699219 120.472656 C 262.769531 117.851562 262.753906 115.816406 262.738281 114.433594 C 262.710938 113.058594 262.695312 112.328125 262.695312 112.328125 C 262.695312 112.328125 262.796875 113.046875 262.949219 114.421875 C 263.101562 115.792969 263.308594 117.828125 263.46875 120.460938 C 263.796875 125.71875 263.9375 133.394531 263.152344 142.863281 C 263.089844 143.597656 263.023438 144.34375 262.953125 145.097656 C 263.003906 144.726562 263.070312 144.34375 263.121094 143.972656 C 264.863281 131.539062 265.324219 120.167969 264.742188 110.636719 C 264.199219 101.101562 262.566406 93.4375 260.933594 88.273438 C 260.125 85.6875 259.339844 83.714844 258.769531 82.394531 C 258.199219 81.070312 257.867188 80.390625 257.867188 80.390625 C 257.867188 80.390625 258.269531 81.03125 258.960938 82.300781 C 259.652344 83.570312 260.625 85.472656 261.660156 88.011719 C 263.75 93.070312 266.027344 100.730469 267.203125 110.410156 C 268.417969 120.082031 268.574219 131.71875 267.261719 144.476562 C 265.953125 157.226562 263.1875 171.09375 258.867188 185.203125 C 258.71875 185.691406 258.5625 186.179688 258.410156 186.664062 C 259.117188 184.71875 259.78125 182.847656 260.386719 181.089844 C 262.316406 175.5 263.746094 170.914062 264.710938 167.734375 C 265.636719 164.621094 266.183594 162.777344 266.183594 162.777344 C 266.183594 162.777344 265.976562 164.609375 265.464844 167.90625 C 264.949219 171.199219 264.113281 175.957031 262.761719 181.769531 C 260.078125 193.390625 255.246094 209.257812 247.253906 225.71875 C 243.269531 233.949219 238.890625 241.511719 234.492188 248.132812 C 230.101562 254.757812 225.699219 260.4375 221.757812 265.007812 C 217.816406 269.582031 214.355469 273.054688 211.886719 275.378906 C 209.421875 277.703125 207.976562 278.902344 207.976562 278.902344 C 207.976562 278.902344 209.207031 277.480469 211.320312 274.855469 C 213.433594 272.226562 216.402344 268.382812 219.804688 263.496094 C 223.210938 258.609375 227.03125 252.675781 230.953125 245.929688 C 232.25 243.707031 233.554688 241.386719 234.863281 239 C 231.78125 244.054688 228.710938 248.632812 225.765625 252.683594 C 220.089844 260.503906 214.894531 266.363281 211.148438 270.246094 C 209.273438 272.1875 207.769531 273.644531 206.734375 274.617188 C 205.703125 275.589844 205.144531 276.089844 205.144531 276.089844 C 205.144531 276.089844 205.644531 275.523438 206.582031 274.46875 C 207.515625 273.402344 208.878906 271.820312 210.570312 269.734375 C 213.949219 265.5625 218.625 259.363281 223.722656 251.296875 C 224.152344 250.613281 224.589844 249.910156 225.027344 249.203125 C 224.773438 249.574219 224.515625 249.949219 224.257812 250.320312 C 217.050781 260.664062 209.503906 269.207031 202.527344 275.613281 C 195.558594 282.050781 189.167969 286.289062 184.582031 288.753906 C 182.351562 289.953125 180.5625 290.765625 179.3125 291.285156 C 182.234375 292.023438 185.152344 292.773438 188.070312 293.527344 L 86.792969 298.164062 L 206.378906 298.164062 C 209.066406 298.835938 211.75 299.511719 214.425781 300.21875 C 215.257812 300.4375 216.09375 300.640625 216.925781 300.855469 L 45.6875 305.910156 L 239.078125 305.910156 L 239.078125 305.878906 C 240.84375 305.957031 242.613281 305.871094 244.363281 305.632812 C 247.949219 305.152344 251.4375 304.074219 254.757812 302.648438 C 258.546875 301.023438 262.128906 298.9375 265.515625 296.59375 C 269.386719 293.914062 273.011719 290.890625 276.433594 287.660156 C 280.246094 284.0625 283.808594 280.207031 287.164062 276.183594 C 290.847656 271.761719 294.28125 267.136719 297.5 262.367188 C 300.976562 257.21875 304.203125 251.902344 307.199219 246.460938 C 310.390625 240.675781 313.324219 234.746094 316.011719 228.707031 C 318.910156 222.203125 321.527344 215.578125 323.859375 208.851562 C 326.269531 201.90625 328.378906 194.851562 330.140625 187.714844 C 331.796875 181.023438 333.15625 174.25 334.152344 167.429688 C 335.070312 161.140625 335.6875 154.800781 335.917969 148.449219 C 336.125 142.710938 336.019531 136.953125 335.476562 131.234375 " fill-opacity="1" fill-rule="nonzero"/></g></svg>